<svg id="Layer_1" data-name="Layer 1" xmlns="http://www.w3.org/2000/svg" width="782.92" height="782.92" viewBox="0 0 782.92 782.92">
  <defs>
    <style>
      .cls-1 {
        fill: #1d1d1b;
      }
    </style>
  </defs>
  <title>회전</title>
  <g>
    <g>
      <path d="M326.86,263c-.19-.48-.39-.94-.6-1.37a7.9,7.9,0,0,1-.52-1.42,11.38,11.38,0,0,1-.82-2.7,31.57,31.57,0,0,1-1.07-10.09c0-1.54.09-3.11.19-4.69l.27-4.75a4,4,0,0,1,0-.92c0-.28.07-.55.09-.82l.05-.79c0-.26,0-.56,0-.89a9.8,9.8,0,0,1-.14-1.32,4.2,4.2,0,0,0,.1-.7,6.57,6.57,0,0,0,0-.88,25.19,25.19,0,0,0-1.1-8.41q-.68-2-1.44-3.87c-.51-1.23-1.05-2.4-1.62-3.52-1.2-2.18-2.35-4.15-3.45-5.88-.64-.81-1.17-1.5-1.59-2.06s-.77-1-1.05-1.36l-.34-.57a.5.5,0,0,1-.26-.23,6.24,6.24,0,0,0-4-2.1,6.61,6.61,0,0,0-4.48.84,6.16,6.16,0,0,0-3,3.65,8.14,8.14,0,0,0,.08,4.93l.28-.17a4.17,4.17,0,0,1,3.27-.51,4.62,4.62,0,0,1,2.6,2,4.14,4.14,0,0,1,.52,3.27,4.18,4.18,0,0,1-2.05,2.6l-.38.22a4.25,4.25,0,0,1-3,.1,3.75,3.75,0,0,1-2.43-1.76l-.17-.28a14.11,14.11,0,0,1-1.46-4.88,12.82,12.82,0,0,1,.32-4.9,12.49,12.49,0,0,1,2.27-4.39,12.34,12.34,0,0,1,3.77-3.36,8.74,8.74,0,0,0-2.52,2.24,12,12,0,0,1,2.91-2.22l.86-.5a2.67,2.67,0,0,1,.81-.35,5,5,0,0,1,1.69-.61,11,11,0,0,1,7,.47,12.44,12.44,0,0,1,5.95,4.29,37.12,37.12,0,0,1,4.77,6.39c.37.63.71,1.25,1,1.87s.62,1.24.89,1.84l.81,1.82a13,13,0,0,1,.66,1.78,37.07,37.07,0,0,1,2.23,9.67c.17,1.59.28,3.12.33,4.58s.07,2.92.07,4.36c0,.69-.06,1.39-.11,2.1s-.09,1.41-.11,2.11c-.06,1.48-.17,2.82-.32,4l.05.1a3.4,3.4,0,0,0-.06.86c0,.38,0,.9.08,1.55s.11,1.36.21,2.11.25,1.57.44,2.48a33.59,33.59,0,0,0,1.69,6.15,31.24,31.24,0,0,0,3.51,6.86l12.82-7.51a2.65,2.65,0,0,0,1.31-1.66,2.51,2.51,0,0,0-.28-2l4.06,6.92-23.06,13.52Z" transform="translate(-102.46 -130.75)"/>
      <path d="M357.87,176.74a12.4,12.4,0,0,1,5,1.24,14.94,14.94,0,0,1,2.3,1.36,20.25,20.25,0,0,1,2.08,1.7,16,16,0,0,1,3.07,4.79l18.72,44.87a14.26,14.26,0,0,1,1.21,5.46,17.87,17.87,0,0,1-.21,2.77,11.64,11.64,0,0,1-.69,2.49,12.49,12.49,0,0,1-2.68,4.46,12.08,12.08,0,0,1-4.2,3.06,11,11,0,0,1-5.13.83,12.23,12.23,0,0,1-5.05-1.23,12.4,12.4,0,0,1-4.37-3.06,12.61,12.61,0,0,1-3.14-4.65L346.1,196a13.91,13.91,0,0,1-1.15-5.6,15.79,15.79,0,0,1,.9-5.27,12.45,12.45,0,0,1,2.68-4.45,11.1,11.1,0,0,1,4.24-3A11.63,11.63,0,0,1,357.87,176.74ZM357.2,180a4.81,4.81,0,0,0-3.41.11,4.2,4.2,0,0,0-2.38,2.31,4.24,4.24,0,0,0,0,3.35l24.44,58.57a3.64,3.64,0,0,0,2.37,2.23,3.78,3.78,0,0,0,3.35,0,4.34,4.34,0,0,0,2.43-2.45,4,4,0,0,0,0-3.21L359.5,182.38A4.66,4.66,0,0,0,357.2,180Z" transform="translate(-102.46 -130.75)"/>
      <path d="M402,227.72c-.07-.51-.14-1-.23-1.48a8,8,0,0,1-.11-1.5,11.25,11.25,0,0,1-.07-2.83,31.2,31.2,0,0,1,1.67-10c.44-1.48.92-3,1.43-4.48l1.54-4.5a3.42,3.42,0,0,1,.28-.87c.12-.27.22-.52.31-.77l.25-.75a7,7,0,0,0,.23-.86,11,11,0,0,1,.22-1.31,3.5,3.5,0,0,0,.28-.64,5.61,5.61,0,0,0,.23-.86,25.42,25.42,0,0,0,1.19-8.4c-.08-1.42-.19-2.79-.36-4.11s-.36-2.6-.61-3.82q-.86-3.64-1.75-6.6c-.41-.95-.74-1.75-1-2.41s-.47-1.18-.66-1.59l-.16-.64a.46.46,0,0,1-.2-.29,6.23,6.23,0,0,0-3.32-3.1,6.59,6.59,0,0,0-4.54-.39,6.14,6.14,0,0,0-3.83,2.73,8.05,8.05,0,0,0-1.24,4.76l.32-.08a4.16,4.16,0,0,1,3.28.38,4.62,4.62,0,0,1,2,2.67,4.12,4.12,0,0,1-3,5.24l-.43.12a4.35,4.35,0,0,1-2.92-.71,3.77,3.77,0,0,1-1.87-2.35l-.09-.32a14.17,14.17,0,0,1-.1-5.09,13.1,13.1,0,0,1,1.62-4.64,12.52,12.52,0,0,1,3.36-3.62,12.32,12.32,0,0,1,4.53-2.23,8.94,8.94,0,0,0-3,1.48,11.82,11.82,0,0,1,3.4-1.35l.95-.26a3.19,3.19,0,0,1,.88-.12,5.06,5.06,0,0,1,1.79-.13,11,11,0,0,1,6.65,2.33,12.34,12.34,0,0,1,4.59,5.73,37,37,0,0,1,2.89,7.42c.18.71.35,1.41.49,2.09s.27,1.35.36,2l.3,2a14.18,14.18,0,0,1,.16,1.89,36.94,36.94,0,0,1-.44,9.91c-.26,1.59-.57,3.09-.91,4.51s-.71,2.82-1.1,4.22c-.2.66-.43,1.32-.66,2s-.46,1.34-.67,2q-.69,2.12-1.38,3.78l0,.11a3.4,3.4,0,0,0-.29.82c-.09.37-.21.87-.34,1.51s-.25,1.34-.36,2.09-.18,1.58-.24,2.51a32.89,32.89,0,0,0,0,6.38,31.31,31.31,0,0,0,1.55,7.55L427.16,229a2.7,2.7,0,0,0,1.72-1.25,2.57,2.57,0,0,0,.26-2l2.06,7.77-25.83,6.85Z" transform="translate(-102.46 -130.75)"/>
      <path d="M439.18,218.61c0-.52,0-1,0-1.49a7.1,7.1,0,0,1,.07-1.51,11.35,11.35,0,0,1,.28-2.81,31.54,31.54,0,0,1,2.91-9.72c.62-1.41,1.28-2.84,2-4.26l2.09-4.28a3.75,3.75,0,0,1,.39-.83c.15-.24.28-.48.4-.72l.35-.71c.11-.24.22-.51.33-.82a10.8,10.8,0,0,1,.38-1.28,2.8,2.8,0,0,0,.36-.6,7.27,7.27,0,0,0,.34-.82,25.37,25.37,0,0,0,2.22-8.18c.1-1.42.16-2.8.16-4.13s0-2.63-.13-3.87c-.27-2.48-.57-4.73-.92-6.76-.28-1-.51-1.83-.67-2.51s-.32-1.24-.45-1.66l-.09-.66a.46.46,0,0,1-.15-.31,6.26,6.26,0,0,0-2.91-3.49,6.55,6.55,0,0,0-4.46-.95,6.21,6.21,0,0,0-4.14,2.22,8.08,8.08,0,0,0-1.82,4.58l.32,0a4.22,4.22,0,0,1,3.22.79,4.69,4.69,0,0,1,1.61,2.89,4.1,4.1,0,0,1-.79,3.21,4.17,4.17,0,0,1-2.89,1.62l-.43.05a4.28,4.28,0,0,1-2.81-1.06,3.78,3.78,0,0,1-1.57-2.56l0-.33a14.21,14.21,0,0,1,.53-5.07,13,13,0,0,1,2.18-4.4,13.81,13.81,0,0,1,8.56-4.82,8.94,8.94,0,0,0-3.18,1.1,11.64,11.64,0,0,1,3.54-.92l1-.14a3,3,0,0,1,.89,0,5.19,5.19,0,0,1,1.79.1,10.9,10.9,0,0,1,6.3,3.14,12.39,12.39,0,0,1,3.85,6.25,37.37,37.37,0,0,1,1.93,7.73c.1.72.18,1.44.23,2.13s.1,1.37.11,2l.05,2a13.05,13.05,0,0,1-.08,1.9,36.86,36.86,0,0,1-1.67,9.77c-.46,1.54-1,3-1.46,4.36s-1.06,2.71-1.62,4.05c-.29.63-.59,1.26-.91,1.9s-.62,1.27-.91,1.9c-.63,1.34-1.25,2.53-1.84,3.58v.11a3.17,3.17,0,0,0-.39.77c-.14.35-.32.84-.53,1.46s-.41,1.29-.61,2-.38,1.55-.56,2.46a35,35,0,0,0-.81,6.33,31.58,31.58,0,0,0,.6,7.69L464,223a2.68,2.68,0,0,0,1.85-1,2.59,2.59,0,0,0,.52-2l1.07,8-26.48,3.58Z" transform="translate(-102.46 -130.75)"/>
      <path d="M477.15,214.21c.07-.52.12-1,.15-1.49a7.53,7.53,0,0,1,.26-1.49,11.45,11.45,0,0,1,.63-2.75,31.28,31.28,0,0,1,4.09-9.29q1.19-2,2.49-4l2.59-4a4.42,4.42,0,0,1,.49-.77c.18-.23.35-.45.49-.67l.43-.66a6.79,6.79,0,0,0,.44-.78,12.49,12.49,0,0,1,.53-1.21,3.9,3.9,0,0,0,.44-.56,7.58,7.58,0,0,0,.43-.77,25.46,25.46,0,0,0,3.22-7.84c.28-1.4.5-2.76.67-4.08s.29-2.61.35-3.86q.06-3.74-.07-6.81c-.16-1-.28-1.89-.36-2.59s-.16-1.26-.24-1.7v-.66a.45.45,0,0,1-.11-.33,6.25,6.25,0,0,0-2.46-3.82,6.54,6.54,0,0,0-4.3-1.5,6.24,6.24,0,0,0-4.39,1.7,8.12,8.12,0,0,0-2.37,4.31h.33A4.16,4.16,0,0,1,484,159.8a4.63,4.63,0,0,1,1.24,3.06A4.14,4.14,0,0,1,481,167.2h-.44a4.33,4.33,0,0,1-2.66-1.4,3.8,3.8,0,0,1-1.23-2.74v-.33a14,14,0,0,1,1.16-5,12.85,12.85,0,0,1,2.71-4.1,12.64,12.64,0,0,1,4.15-2.68,12.38,12.38,0,0,1,4.94-1,8.78,8.78,0,0,0-3.29.69,12,12,0,0,1,3.62-.48h1a3,3,0,0,1,.88.11,4.79,4.79,0,0,1,1.77.31,11,11,0,0,1,5.87,3.9,12.36,12.36,0,0,1,3,6.68,37.25,37.25,0,0,1,1,7.91c0,.73,0,1.44,0,2.14s-.07,1.38-.14,2l-.2,2a14.59,14.59,0,0,1-.31,1.87,36.65,36.65,0,0,1-2.87,9.49c-.65,1.48-1.31,2.86-2,4.15s-1.38,2.56-2.1,3.82q-.54.88-1.14,1.77c-.4.59-.78,1.18-1.13,1.77-.8,1.25-1.56,2.36-2.28,3.32v.11a3.64,3.64,0,0,0-.49.72c-.18.33-.41.79-.7,1.38s-.57,1.24-.86,1.94-.57,1.49-.85,2.37a32.65,32.65,0,0,0-1.59,6.18,31.24,31.24,0,0,0-.36,7.7l14.85-.15a2.69,2.69,0,0,0,2-.79,2.54,2.54,0,0,0,.75-1.88l.08,8-26.72.27Z" transform="translate(-102.46 -130.75)"/>
      <path d="M546.86,154.78a12.36,12.36,0,0,1,3.77,3.57,15.58,15.58,0,0,1,1.32,2.33,19.49,19.49,0,0,1,1,2.5,15.9,15.9,0,0,1,.29,5.69l-6,48.25a14.39,14.39,0,0,1-1.66,5.33,18.52,18.52,0,0,1-1.56,2.3,10.9,10.9,0,0,1-1.84,1.82,12.38,12.38,0,0,1-4.53,2.54,12.17,12.17,0,0,1-5.17.58,11.18,11.18,0,0,1-4.87-1.83,12.39,12.39,0,0,1-3.77-3.58,12.54,12.54,0,0,1-2.28-4.83,12.83,12.83,0,0,1-.41-5.59l6-48.25a14,14,0,0,1,1.78-5.43,15.73,15.73,0,0,1,3.4-4.12,12.53,12.53,0,0,1,4.53-2.54,11.22,11.22,0,0,1,5.16-.46A11.58,11.58,0,0,1,546.86,154.78Zm-2.19,2.49a4.83,4.83,0,0,0-3-1.59,4.14,4.14,0,0,0-3.2.82,4.22,4.22,0,0,0-1.7,2.89l-7.86,63a3.67,3.67,0,0,0,.94,3.11,3.79,3.79,0,0,0,2.89,1.7,4.38,4.38,0,0,0,3.33-.92,4,4,0,0,0,1.57-2.8l7.87-63A4.75,4.75,0,0,0,544.67,157.27Z" transform="translate(-102.46 -130.75)"/>
      <path d="M559.9,220.94c.2-.47.38-.94.54-1.39a7.58,7.58,0,0,1,.64-1.36,11.39,11.39,0,0,1,1.34-2.49,31.44,31.44,0,0,1,6.41-7.87q1.68-1.61,3.46-3.18l3.56-3.15a3.54,3.54,0,0,1,.68-.62c.23-.17.45-.34.64-.51l.6-.53a6.21,6.21,0,0,0,.62-.63,13,13,0,0,1,.84-1,3.18,3.18,0,0,0,.57-.42,6.21,6.21,0,0,0,.62-.63,25.27,25.27,0,0,0,5.19-6.71c.64-1.27,1.21-2.52,1.73-3.75s1-2.44,1.35-3.62q1.06-3.59,1.75-6.6c.12-1,.23-1.89.34-2.58s.18-1.26.22-1.7l.17-.64a.46.46,0,0,1,0-.35,6.22,6.22,0,0,0-1.36-4.34,6.59,6.59,0,0,0-3.75-2.59,6.26,6.26,0,0,0-4.68.47,8.18,8.18,0,0,0-3.43,3.53l.32.09a4.2,4.2,0,0,1,2.67,2,4.7,4.7,0,0,1,.38,3.28,4.14,4.14,0,0,1-5.25,3l-.42-.11a4.37,4.37,0,0,1-2.19-2.06,3.75,3.75,0,0,1-.46-3l.08-.32a13.93,13.93,0,0,1,2.44-4.48,12,12,0,0,1,8.41-4.72,12.51,12.51,0,0,1,5,.31,8.74,8.74,0,0,0-3.36-.2,11.94,11.94,0,0,1,3.62.5l1,.25a3.29,3.29,0,0,1,.82.33,5,5,0,0,1,1.62.77,11,11,0,0,1,4.62,5.32,12.39,12.39,0,0,1,1.16,7.25,37.41,37.41,0,0,1-1.18,7.88c-.18.71-.38,1.4-.6,2.06s-.44,1.3-.68,1.93l-.72,1.85a14.56,14.56,0,0,1-.79,1.73,36.81,36.81,0,0,1-5.29,8.38c-1,1.25-2,2.41-3,3.47s-2,2.1-3.05,3.12c-.5.47-1,.94-1.56,1.41s-1.07.93-1.57,1.4c-1.1,1-2.13,1.87-3.08,2.6l0,.11a3.15,3.15,0,0,0-.66.56c-.26.28-.61.66-1,1.15s-.88,1-1.34,1.64-.95,1.28-1.46,2.06a33.71,33.71,0,0,0-3.17,5.53,31.53,31.53,0,0,0-2.39,7.33l14.35,3.8a2.68,2.68,0,0,0,2.11-.24,2.54,2.54,0,0,0,1.23-1.61l-2.06,7.76-25.84-6.83Z" transform="translate(-102.46 -130.75)"/>
      <path d="M597.34,244.52a17.11,17.11,0,0,1-3.5-5.18,8.22,8.22,0,0,1-.4-1.1,6.86,6.86,0,0,1-.18-1,4.91,4.91,0,0,1,0-.84l0-.69.33-.82a5.06,5.06,0,0,1,2.81-2.91,5,5,0,0,1,3.94-.1,5.26,5.26,0,0,1,3,6.86,4.84,4.84,0,0,1-3.58,3.07,7.13,7.13,0,0,0,4.14,3.89,7.3,7.3,0,0,0,5.78,0,6.94,6.94,0,0,0,3.8-3.94l3-7.46.15-.06,3.93-9.92a11.81,11.81,0,0,0,.28-1.31c.65-2.43.05-4.91-1.78-7.45a16.85,16.85,0,0,0-7.8-5.7l.33-.81a17.13,17.13,0,0,0,9.23,1.17,8.86,8.86,0,0,0,6.41-3.61c.17-.25.53-.85,1.07-1.82l1.1-2.76.71-1.79c.25-.65.48-1.33.68-2l4.1-10.33a6.25,6.25,0,0,0-.2-5.16A8,8,0,0,0,630.3,179a8.29,8.29,0,0,0-5.07-.35,5,5,0,0,1,.36,3.57l-.16.41a4.91,4.91,0,0,1-6.29,2.72,4.79,4.79,0,0,1-2.74-2.63,4.63,4.63,0,0,1-.07-3.7,4.22,4.22,0,0,1,2.11-2.35,6.48,6.48,0,0,1,1.53-.58,19,19,0,0,1,5.5-1,14.51,14.51,0,0,1,5.82,1.13,15.74,15.74,0,0,1,5.22,3.25,12,12,0,0,1,1.9,2.23,25.61,25.61,0,0,1,1.42,2.52,14.76,14.76,0,0,1,1.37,5.51,15.25,15.25,0,0,1-1,5.87L636,206.12q-.21.51-.48,1a10,10,0,0,1-.58,1l-.63,1a5.83,5.83,0,0,1-.73.95,14.65,14.65,0,0,1-9.1,5,15.86,15.86,0,0,1,3.13,7.63,9,9,0,0,1,.1,1.7c0,.54-.07,1.12-.15,1.72a12,12,0,0,1-.89,3.43l-4.13,10.43a14,14,0,0,1-3.24,4.87,12.46,12.46,0,0,1-4.81,3.18,13.59,13.59,0,0,1-2.83.89,16,16,0,0,1-2.84.29,15.84,15.84,0,0,1-6.07-1.1A13.71,13.71,0,0,1,597.34,244.52Z" transform="translate(-102.46 -130.75)"/>
      <path d="M648.53,270.42l-7.26-4.79a4.56,4.56,0,0,0,3.54-1.36l38.88-58.94a4,4,0,0,0-.14-3.79l10.28,6.79-14.75,33.35,25.5-26.27,9.64,6.36a4.54,4.54,0,0,0-3.08.87l-.06.09a.5.5,0,0,0-.27.22l-39,59.13a.1.1,0,0,0,0,.15l-.18.28a4,4,0,0,0,.29,3.35l-10.56-7a4.08,4.08,0,0,0,2.93-.84c.1,0,.21-.12.33-.31a.43.43,0,0,1,.28-.21l31.55-47.84L694,232.18l-19.15,19.65-.61.52-3.86,4-5.69-3.75L671.92,237l8.15-18.34-31.68,48a.31.31,0,0,0,0,.24l-.12.18A4,4,0,0,0,648.53,270.42Z" transform="translate(-102.46 -130.75)"/>
      <path d="M702.59,273.11l20.66-40.64.68-1.45a3.82,3.82,0,0,0-.15-2.17l9.29,8.09a3.14,3.14,0,0,0-2.87,1.29l-.06.23-.77,1.23-.29.33-15.93,31.35L746,251.56l.07-.08a4.93,4.93,0,0,0,1.09-2.26l5.48,4.77a5.45,5.45,0,0,0-3,.44l-40.2,24.21-19.8,22.72L683,295.59Z" transform="translate(-102.46 -130.75)"/>
      <path d="M727.94,342.22a15.88,15.88,0,0,1-2.74-5.52,13.29,13.29,0,0,1-.42-5.94,14.2,14.2,0,0,1,1.81-5.57,15.52,15.52,0,0,1,4-4.59l36.63-28.34a15.63,15.63,0,0,1,5.44-2.67,14.78,14.78,0,0,1,5.85-.35,15.56,15.56,0,0,1,5.64,1.89,15.79,15.79,0,0,1,4.57,4.12,15.51,15.51,0,0,1,2.58,4.95,14.51,14.51,0,0,1,.65,5.34l3-2.29,1.82,2.35-11.05,8.55-.81-1,1.74-1.34A9.82,9.82,0,0,0,789,309a9.14,9.14,0,0,0,.88-6.94,9.38,9.38,0,0,0-1.63-3.19,8.84,8.84,0,0,0-6.06-3.52,9,9,0,0,0-6.9,1.87L733.48,329.6a9.35,9.35,0,0,0-3.7,6.19,8,8,0,0,0,1.66,6.64,8.82,8.82,0,0,0,3.88,2.85,9.77,9.77,0,0,0,4.73.37l2,2.52a15.43,15.43,0,0,1-7.63-1.05A15,15,0,0,1,727.94,342.22Z" transform="translate(-102.46 -130.75)"/>
      <path d="M815.06,337c.09,1.14.12,2.3.1,3.47a15.39,15.39,0,0,1-.44,3.41,18.88,18.88,0,0,1-2.91,6.25,16.7,16.7,0,0,1-5.2,4.81l-35.22,21.24a17.13,17.13,0,0,1-6.77,2.42,19.08,19.08,0,0,1-6.89-.35,15,15,0,0,1-3.23-1.2,33.06,33.06,0,0,1-3-1.71,17.11,17.11,0,0,1-4.86-5.29,15.73,15.73,0,0,1-2.35-6.67,18.7,18.7,0,0,1,3.19-13.23,17.11,17.11,0,0,1,5.29-4.86L788,324a16.8,16.8,0,0,1,6.67-2.35,18.93,18.93,0,0,1,6.94.44,19.19,19.19,0,0,1,6.26,2.9,16,16,0,0,1,4.8,5.2A16.9,16.9,0,0,1,815.06,337Zm-3.9,1.19a8.35,8.35,0,0,0-1-6.73,7.71,7.71,0,0,0-2.27-2.48,10.58,10.58,0,0,0-3.11-1.34,8.54,8.54,0,0,0-3.42-.12,9.35,9.35,0,0,0-3.35,1.25L752,356.5a9.49,9.49,0,0,0-2.68,2.39,8.37,8.37,0,0,0-1.48,3.08,7.93,7.93,0,0,0-.18,3.32,6.86,6.86,0,0,0,1,3.22,8.33,8.33,0,0,0,5.5,4,9.12,9.12,0,0,0,6.77-1.12L807,343.6A9.1,9.1,0,0,0,811.16,338.14Z" transform="translate(-102.46 -130.75)"/>
      <path d="M760.79,387.93l64.76-28.43a4.5,4.5,0,0,0,1.89-3.35l5.35,12.19c-.09,0-.15-.08-.16-.11a.37.37,0,0,0-.17-.11.31.31,0,0,1-.17-.1s-.07-.07-.16-.11a3,3,0,0,0-2.44-.62l-.1,0a.42.42,0,0,0-.34,0l-63.76,28,8.22,18.73,1,.64.58.23.58.23c.09,0,.15.07.16.1s.07.07.17.11a.58.58,0,0,1,.39.07,3.73,3.73,0,0,1,1,.17,3.66,3.66,0,0,0,1,.17,4.53,4.53,0,0,0,2-.14l.49,1.1-9.17,4L757,387.06A4.24,4.24,0,0,0,760.79,387.93Z" transform="translate(-102.46 -130.75)"/>
      <path d="M776,423.57l67.91-19.76a4.54,4.54,0,0,0,2.32-3.08l3.72,12.78c-.1-.05-.15-.09-.16-.13s-.06-.07-.15-.12a.33.33,0,0,1-.15-.13s-.06-.08-.15-.13a3,3,0,0,0-2.33-.92l-.11,0a.46.46,0,0,0-.35,0l-66.85,19.46,5.71,19.64.91.77.55.3.54.3a.39.39,0,0,1,.16.12s.06.08.15.13.19,0,.37.12a4,4,0,0,1,1,.3,4,4,0,0,0,1,.3,4.43,4.43,0,0,0,2,.11l.33,1.16-9.61,2.8-10.29-35.39A4.2,4.2,0,0,0,776,423.57Z" transform="translate(-102.46 -130.75)"/>
      <path d="M782.85,459.19a4.24,4.24,0,0,0,3.41,1.79L856,449.83a4.54,4.54,0,0,0,2.68-2.77l5.16,32.26-9.45,1.51-.17-1.08a7.56,7.56,0,0,0,3.29-2.42.31.31,0,0,1,.2-.15.33.33,0,0,0,.08-.18s0-.09.08-.18a7.46,7.46,0,0,0,1.59-5.38l-2.08-13-29.77,4.76,2,12.38a4,4,0,0,0,1.43,1.22.32.32,0,0,1,.13.15s.05.08.14.14l.14.2a10.8,10.8,0,0,0,4,1.15l.19,1.2-18.9,3-.19-1.2a9.9,9.9,0,0,0,3.2-2.29c.12-.17.22-.26.29-.27s.09-.14.08-.18a.33.33,0,0,1,.08-.18l.55-.76a2,2,0,0,0,.42-.84l-2-12.39-31.39,5,2.09,13a9.91,9.91,0,0,0,1.21,2.7,6.64,6.64,0,0,0,1.87,1.93,1.48,1.48,0,0,0,.37.22,1.47,1.47,0,0,1,.24.13,7.37,7.37,0,0,0,3.77,1.29l.17,1.09L788,491.45Z" transform="translate(-102.46 -130.75)"/>
      <path d="M788.86,509.2a16.13,16.13,0,0,1,.93-6.11,13.33,13.33,0,0,1,3.06-5.09,14.32,14.32,0,0,1,4.68-3.53,15.76,15.76,0,0,1,5.88-1.49l46.26-2.17a15.73,15.73,0,0,1,6,.93,15.13,15.13,0,0,1,5,3.07,15.92,15.92,0,0,1,4.18,16.33,14.58,14.58,0,0,1-2.53,4.74l3.74-.17.14,3-14,.66-.06-1.32,2.2-.1a9.85,9.85,0,0,0,3.59-.83,18.17,18.17,0,0,0,2.88-2.12,18,18,0,0,0,1.84-3.06,9.52,9.52,0,0,0,.49-3.55,8.84,8.84,0,0,0-2.94-6.36,9,9,0,0,0-6.72-2.43L800.64,502a9.29,9.29,0,0,0-6.58,2.95,8,8,0,0,0-2.45,6.39,8.75,8.75,0,0,0,1.53,4.55,9.79,9.79,0,0,0,3.67,3l.15,3.19a15.4,15.4,0,0,1-5.64-5.24A15,15,0,0,1,788.86,509.2Z" transform="translate(-102.46 -130.75)"/>
      <path d="M788.8,537a4.88,4.88,0,0,0,2.94,2.08L861.3,544l.88-12.4a2.11,2.11,0,0,0-.55-1.58,2.21,2.21,0,0,0-1.6-.77l6.58.46L864,566.5l-6.59-.47a2.23,2.23,0,0,0,1.7-.54,2.13,2.13,0,0,0,.76-1.49l.81-11.41-69.45-4.9a4.39,4.39,0,0,0-1.81.53,5.67,5.67,0,0,0-.85.44,1.84,1.84,0,0,0-.66.67l.24-1.86h-.11Z" transform="translate(-102.46 -130.75)"/>
      <path d="M813.46,576.07l3.87.85-5.89,26.86-3.87-.85Z" transform="translate(-102.46 -130.75)"/>
      <path d="M778.41,612.82,845.1,638a4.49,4.49,0,0,0,3.69-1.07l-4.62,12.24a18.73,18.73,0,0,1-4.08,6.46,19.71,19.71,0,0,1-13.32,6,18.82,18.82,0,0,1-7.54-1.2,18.33,18.33,0,0,1-9.49-7.57,18.81,18.81,0,0,1-3-11.61l.12-.31a.47.47,0,0,1,0-.35,1.26,1.26,0,0,0-.33.58,19.68,19.68,0,0,1-4.51,5.71,22.36,22.36,0,0,1-6.09,3.69,20.44,20.44,0,0,1-6.84,1.3,18.77,18.77,0,0,1-7.06-1.25,20,20,0,0,1-6.66-4.16,18.63,18.63,0,0,1-4.31-6.33,19.58,19.58,0,0,1-1.72-7.58,21.91,21.91,0,0,1,1.39-8.06l5.63-14.92A4.26,4.26,0,0,0,778.41,612.82Zm-4,16.83a13.19,13.19,0,0,0,1.67,5.22,21.46,21.46,0,0,0,1.6,2.3,17.47,17.47,0,0,0,2,2.12,18,18,0,0,0,5.41,3.1,16.4,16.4,0,0,0,10.45.65,13.53,13.53,0,0,0,7.73-5.2l2.05-5.45-29.22-11-1.13,3A11.08,11.08,0,0,0,774.41,629.65Zm40.14,17.62a18.83,18.83,0,0,0,8.37,5.86,21.75,21.75,0,0,0,5.93,1.41,16.52,16.52,0,0,0,5.35-.45,11.11,11.11,0,0,0,4.29-2,8.14,8.14,0,0,0,2.61-3.48l.89-2.37-28.61-10.79-1.55,4.12C811.57,642.1,812.47,644.68,814.55,647.27Z" transform="translate(-102.46 -130.75)"/>
      <path d="M817.54,703.11a34.7,34.7,0,0,1-2.93,1.86,15.19,15.19,0,0,1-3.16,1.37,19.06,19.06,0,0,1-6.86.7,16.64,16.64,0,0,1-6.78-2l-36.3-19.36A17.05,17.05,0,0,1,756,681.1a19.15,19.15,0,0,1-3.23-6.09,15.86,15.86,0,0,1-.63-3.39c-.08-1.16-.11-2.32-.08-3.47a17.12,17.12,0,0,1,2.05-6.88,15.74,15.74,0,0,1,4.53-5.44,18.78,18.78,0,0,1,6.09-3.24,19.13,19.13,0,0,1,6.91-.8,17,17,0,0,1,6.88,2.05l36.3,19.37a16.74,16.74,0,0,1,5.44,4.52,18.63,18.63,0,0,1,3.89,13,15.83,15.83,0,0,1-2,6.79A17.16,17.16,0,0,1,817.54,703.11Zm-3-2.74a8.36,8.36,0,0,0,5.29-4.29,7.92,7.92,0,0,0,1-3.22,10.3,10.3,0,0,0-.46-3.36,8.49,8.49,0,0,0-1.64-3,9.47,9.47,0,0,0-2.79-2.24l-47.46-25.32a9.15,9.15,0,0,0-3.42-1.07,8.25,8.25,0,0,0-3.4.3,7.94,7.94,0,0,0-3,1.54,6.9,6.9,0,0,0-2.23,2.55,8.36,8.36,0,0,0-.62,6.78,9.1,9.1,0,0,0,4.44,5.23l47.45,25.33A9.16,9.16,0,0,0,814.51,700.37Z" transform="translate(-102.46 -130.75)"/>
      <path d="M791.58,743.26a34.75,34.75,0,0,1-3.15,1.47,15,15,0,0,1-3.31.95,19,19,0,0,1-6.89-.19,16.8,16.8,0,0,1-6.48-2.86l-33.48-23.89a16.84,16.84,0,0,1-4.9-5.26A18.91,18.91,0,0,1,731,707a15.16,15.16,0,0,1-.18-3.44,33,33,0,0,1,.37-3.46,16.91,16.91,0,0,1,2.92-6.56,15.75,15.75,0,0,1,5.19-4.81,18.68,18.68,0,0,1,13.41-2.32,17,17,0,0,1,6.56,2.93l33.49,23.89a16.81,16.81,0,0,1,4.81,5.19,18.66,18.66,0,0,1,2.17,13.44,15.83,15.83,0,0,1-2.86,6.47A17,17,0,0,1,791.58,743.26Zm-2.65-3.11a8.34,8.34,0,0,0,5.79-3.57,7.84,7.84,0,0,0,1.38-3.07,10.36,10.36,0,0,0,0-3.38,8.29,8.29,0,0,0-1.24-3.19,9.49,9.49,0,0,0-2.48-2.58l-43.79-31.24a9.17,9.17,0,0,0-3.25-1.51,8.55,8.55,0,0,0-3.41-.14,7.93,7.93,0,0,0-3.12,1.16,6.77,6.77,0,0,0-2.54,2.23,8.35,8.35,0,0,0-1.5,6.64,9.19,9.19,0,0,0,3.73,5.77l43.78,31.24A9.16,9.16,0,0,0,788.93,740.15Z" transform="translate(-102.46 -130.75)"/>
      <path d="M713.48,719.67l9.12-9.7a4.25,4.25,0,0,0,.66,3.8l51.59,48.55a4.57,4.57,0,0,0,3.83.43l-9.13,9.69a.31.31,0,0,1,0-.2.36.36,0,0,0,0-.19.43.43,0,0,1,0-.2s0-.09,0-.19a3,3,0,0,0-.39-2.48l-.08-.08a.43.43,0,0,0-.17-.3L743.74,745l-.23-.07,3.78,9.15,9.58,23.37,1,2.61.16.31a2.94,2.94,0,0,0,3.9.19l-7.31,7.77a3.12,3.12,0,0,0,.69-2.82l-.25-.69-2.44-5.92-10.5-25.44-40.07-15.21-.71-.21a5.94,5.94,0,0,0-5.73,1l-.16-.15,12-12.74a3.63,3.63,0,0,0-1,2.68,3.49,3.49,0,0,0,1.16,2.46l.24.22L720.12,736l17.64,6.62-2.19-5.38-18.26-17.19A4.26,4.26,0,0,0,713.48,719.67Z" transform="translate(-102.46 -130.75)"/>
      <path d="M662.15,780.57c.2.47.4.93.61,1.36a7.2,7.2,0,0,1,.52,1.42,11.34,11.34,0,0,1,.84,2.7,31.54,31.54,0,0,1,1.11,10.08c0,1.54-.07,3.11-.16,4.69l-.25,4.76a3.87,3.87,0,0,1,0,.91,8.11,8.11,0,0,0-.08.82l-.05.79a6.83,6.83,0,0,0,0,.89,12.53,12.53,0,0,1,.14,1.32,4.2,4.2,0,0,0-.1.7,6.68,6.68,0,0,0,0,.88,25,25,0,0,0,1.14,8.41c.46,1.34.94,2.63,1.46,3.86s1,2.4,1.63,3.51c1.21,2.18,2.36,4.14,3.47,5.87.65.81,1.19,1.49,1.6,2.05s.78,1,1.06,1.36l.34.57a.42.42,0,0,1,.26.22,6.24,6.24,0,0,0,4,2.08,6.55,6.55,0,0,0,4.47-.86,6.19,6.19,0,0,0,2.95-3.66,8.1,8.1,0,0,0-.11-4.92l-.28.16a4.13,4.13,0,0,1-3.27.53,4.66,4.66,0,0,1-2.61-2,4.17,4.17,0,0,1-.53-3.27,4.22,4.22,0,0,1,2-2.61l.38-.22a4.3,4.3,0,0,1,3-.12,3.85,3.85,0,0,1,2.45,1.75l.16.29a14.09,14.09,0,0,1,1.49,4.87,12.82,12.82,0,0,1-.3,4.9,13.69,13.69,0,0,1-6,7.78,8.72,8.72,0,0,0,2.5-2.25,12,12,0,0,1-2.9,2.23l-.85.5a2.73,2.73,0,0,1-.81.36,5,5,0,0,1-1.68.61,11.07,11.07,0,0,1-7-.43,12.44,12.44,0,0,1-6-4.26,37.59,37.59,0,0,1-4.8-6.37c-.37-.63-.72-1.26-1-1.87s-.62-1.23-.9-1.84l-.82-1.81a16.37,16.37,0,0,1-.67-1.78,37.06,37.06,0,0,1-2.26-9.65c-.18-1.6-.3-3.13-.35-4.59s-.09-2.91-.09-4.36c0-.69.05-1.39.09-2.1s.09-1.41.1-2.1c.06-1.49.16-2.82.31-4l-.06-.09a3.48,3.48,0,0,0,.06-.87c0-.38,0-.89-.08-1.55s-.13-1.35-.23-2.1-.25-1.58-.45-2.49a34,34,0,0,0-1.71-6.14,32.18,32.18,0,0,0-3.55-6.85l-12.78,7.57a2.69,2.69,0,0,0-1.31,1.67,2.58,2.58,0,0,0,.29,2l-4.09-6.91,23-13.63Z" transform="translate(-102.46 -130.75)"/>
      <path d="M631.58,866.91a12.45,12.45,0,0,1-5.05-1.21,14.94,14.94,0,0,1-2.3-1.36,20.21,20.21,0,0,1-2.09-1.68,16.21,16.21,0,0,1-3.1-4.78L600.11,813.1a14.41,14.41,0,0,1-1.23-5.45,16.73,16.73,0,0,1,.2-2.77,11.32,11.32,0,0,1,.67-2.5,12.42,12.42,0,0,1,2.65-4.46,12.24,12.24,0,0,1,4.19-3.09,11.16,11.16,0,0,1,5.13-.85,12.36,12.36,0,0,1,5,1.2,12.54,12.54,0,0,1,4.39,3,12.72,12.72,0,0,1,3.16,4.64l18.93,44.78a13.71,13.71,0,0,1,1.18,5.59,15.51,15.51,0,0,1-.88,5.27A12.42,12.42,0,0,1,640.9,863a11.19,11.19,0,0,1-4.23,3A11.78,11.78,0,0,1,631.58,866.91Zm.65-3.27a4.81,4.81,0,0,0,3.41-.12A4.19,4.19,0,0,0,638,861.2a4.24,4.24,0,0,0,0-3.35L613.3,799.4a3.65,3.65,0,0,0-2.37-2.22,3.78,3.78,0,0,0-3.35,0,4.38,4.38,0,0,0-2.43,2.46,4.07,4.07,0,0,0,.05,3.21l24.72,58.45A4.68,4.68,0,0,0,632.23,863.64Z" transform="translate(-102.46 -130.75)"/>
      <path d="M587.17,816.15c.07.52.14,1,.23,1.48a7.24,7.24,0,0,1,.12,1.5,11.2,11.2,0,0,1,.08,2.83A31.26,31.26,0,0,1,586,832c-.43,1.49-.9,3-1.4,4.48L583.06,841a3.63,3.63,0,0,1-.28.88,6.64,6.64,0,0,0-.3.76l-.25.76a6.86,6.86,0,0,0-.23.85,10.4,10.4,0,0,1-.21,1.32,2.93,2.93,0,0,0-.28.64,7,7,0,0,0-.23.86,25.46,25.46,0,0,0-1.14,8.4c.08,1.42.2,2.79.37,4.11s.38,2.6.63,3.82c.58,2.43,1.18,4.62,1.78,6.58.41,1,.74,1.76,1,2.41s.47,1.19.65,1.59l.18.64a.49.49,0,0,1,.19.29,6.2,6.2,0,0,0,3.34,3.08,6.53,6.53,0,0,0,4.54.37,6.19,6.19,0,0,0,3.82-2.74,8.09,8.09,0,0,0,1.21-4.78l-.31.09a4.14,4.14,0,0,1-3.29-.36,4.71,4.71,0,0,1-2-2.66,4.19,4.19,0,0,1,.37-3.29,4.14,4.14,0,0,1,2.66-2l.42-.12a4.39,4.39,0,0,1,2.92.7,3.77,3.77,0,0,1,1.89,2.33l.08.32a14.05,14.05,0,0,1,.13,5.1,13.05,13.05,0,0,1-1.59,4.64,12.7,12.7,0,0,1-3.35,3.64,12.39,12.39,0,0,1-4.52,2.25,8.86,8.86,0,0,0,3-1.5,11.9,11.9,0,0,1-3.38,1.37l-1,.26a2.87,2.87,0,0,1-.88.13,5,5,0,0,1-1.78.14,11,11,0,0,1-6.66-2.3,12.33,12.33,0,0,1-4.62-5.7,37.19,37.19,0,0,1-2.92-7.42c-.19-.71-.36-1.4-.51-2.08s-.27-1.36-.37-2l-.3-2a12.75,12.75,0,0,1-.17-1.89,37.1,37.1,0,0,1,.39-9.91c.26-1.59.55-3.09.89-4.51s.7-2.83,1.08-4.22c.2-.67.42-1.33.65-2s.46-1.34.66-2c.45-1.42.91-2.68,1.37-3.79l0-.11a3.4,3.4,0,0,0,.29-.82c.09-.36.2-.87.33-1.51s.25-1.34.35-2.09.18-1.59.23-2.51a33.88,33.88,0,0,0,0-6.38,31.55,31.55,0,0,0-1.59-7.55L562,815a2.67,2.67,0,0,0-1.71,1.26,2.53,2.53,0,0,0-.26,2L558,810.5l25.8-7Z" transform="translate(-102.46 -130.75)"/>
      <path d="M550.05,825.44c0,.52,0,1,.05,1.49a7.82,7.82,0,0,1-.07,1.51,11.29,11.29,0,0,1-.27,2.81A31.28,31.28,0,0,1,546.9,841q-.93,2.13-2,4.28l-2.06,4.28a4.35,4.35,0,0,1-.38.84,5.18,5.18,0,0,0-.4.72l-.35.71c-.11.24-.22.52-.33.83a12.37,12.37,0,0,1-.37,1.27,3.17,3.17,0,0,0-.36.61,5.37,5.37,0,0,0-.33.82,25.38,25.38,0,0,0-2.19,8.19c-.09,1.42-.14,2.8-.14,4.13s.05,2.62.15,3.87c.28,2.48.59,4.73,1,6.75.29,1,.51,1.84.68,2.52s.32,1.23.46,1.65l.09.66a.44.44,0,0,1,.15.31,6.33,6.33,0,0,0,2.94,3.48,6.58,6.58,0,0,0,4.46.93,6.23,6.23,0,0,0,4.13-2.25,8.12,8.12,0,0,0,1.8-4.58l-.33,0a4.14,4.14,0,0,1-3.22-.77,4.65,4.65,0,0,1-1.62-2.88,4.13,4.13,0,0,1,3.65-4.84l.44-.06a4.32,4.32,0,0,1,2.81,1,3.75,3.75,0,0,1,1.58,2.55l0,.33a14,14,0,0,1-.51,5.07,12.78,12.78,0,0,1-2.16,4.41,12.46,12.46,0,0,1-3.77,3.19,12.3,12.3,0,0,1-4.76,1.67,8.72,8.72,0,0,0,3.17-1.11,11.88,11.88,0,0,1-3.53.94l-1,.14a3,3,0,0,1-.89,0,5.17,5.17,0,0,1-1.79-.08,11,11,0,0,1-6.32-3.12,12.27,12.27,0,0,1-3.87-6.23,36.82,36.82,0,0,1-2-7.72c-.1-.73-.18-1.44-.25-2.13s-.1-1.38-.11-2l-.06-2a13,13,0,0,1,.07-1.9,36.59,36.59,0,0,1,1.63-9.78c.45-1.54.93-3,1.44-4.37s1-2.72,1.6-4c.28-.63.58-1.27.9-1.91s.61-1.27.9-1.9c.62-1.35,1.23-2.54,1.83-3.59l0-.11a2.85,2.85,0,0,0,.39-.77c.14-.35.31-.84.52-1.46s.41-1.3.6-2,.38-1.55.55-2.47a33.5,33.5,0,0,0,.78-6.33,31.18,31.18,0,0,0-.64-7.68l-14.7,2.06a2.72,2.72,0,0,0-1.86,1,2.59,2.59,0,0,0-.5,2l-1.11-8,26.47-3.71Z" transform="translate(-102.46 -130.75)"/>
      <path d="M512.1,830c-.07.51-.12,1-.15,1.48a7.37,7.37,0,0,1-.25,1.49,11.35,11.35,0,0,1-.62,2.76,31.26,31.26,0,0,1-4,9.3q-1.19,2-2.47,4l-2.58,4a3.69,3.69,0,0,1-.48.78,7.63,7.63,0,0,0-.49.67l-.43.66a6.83,6.83,0,0,0-.43.78,10.23,10.23,0,0,1-.53,1.22,3.76,3.76,0,0,0-.43.55,7.81,7.81,0,0,0-.43.78,25.38,25.38,0,0,0-3.18,7.86q-.4,2.1-.66,4.08c-.16,1.32-.27,2.61-.32,3.85q-.06,3.75.1,6.82c.16,1,.28,1.89.37,2.58s.16,1.27.24,1.7v.66a.45.45,0,0,1,.12.33,6.24,6.24,0,0,0,2.47,3.82,6.53,6.53,0,0,0,4.32,1.47,6.16,6.16,0,0,0,4.37-1.71,8.13,8.13,0,0,0,2.36-4.33h-.33a4.19,4.19,0,0,1-3.1-1.17,4.7,4.7,0,0,1-1.26-3.06,4.14,4.14,0,0,1,4.23-4.35H509a4.31,4.31,0,0,1,2.66,1.39,3.76,3.76,0,0,1,1.25,2.73v.33a14,14,0,0,1-1.14,5,12.84,12.84,0,0,1-2.69,4.11,13.79,13.79,0,0,1-9.07,3.77,9.06,9.06,0,0,0,3.29-.71,12.1,12.1,0,0,1-3.63.49l-1,0a3,3,0,0,1-.88-.1,5,5,0,0,1-1.76-.3,11,11,0,0,1-5.89-3.88,12.32,12.32,0,0,1-3.07-6.66,37.41,37.41,0,0,1-1-7.91c0-.73,0-1.45,0-2.14s.07-1.38.14-2l.19-2a13.43,13.43,0,0,1,.3-1.88,36.86,36.86,0,0,1,2.83-9.5c.64-1.48,1.29-2.86,2-4.16s1.37-2.57,2.09-3.82c.36-.6.73-1.19,1.13-1.78s.77-1.19,1.13-1.78c.78-1.26,1.54-2.37,2.26-3.33v-.11a3.13,3.13,0,0,0,.49-.73q.27-.49.69-1.38c.29-.59.57-1.24.86-1.94s.56-1.49.84-2.38a34.2,34.2,0,0,0,1.56-6.18,32,32,0,0,0,.32-7.71l-14.85.23a2.69,2.69,0,0,0-2,.79,2.59,2.59,0,0,0-.74,1.89l-.12-8,26.73-.4Z" transform="translate(-102.46 -130.75)"/>
      <path d="M442.65,889.78a12.47,12.47,0,0,1-3.78-3.56,15.52,15.52,0,0,1-1.33-2.32,21.16,21.16,0,0,1-1-2.5,15.83,15.83,0,0,1-.32-5.68l5.81-48.28a14.25,14.25,0,0,1,1.64-5.34,17.23,17.23,0,0,1,1.55-2.31,10.56,10.56,0,0,1,1.83-1.83,12.41,12.41,0,0,1,4.51-2.56,12.22,12.22,0,0,1,5.17-.6,11.07,11.07,0,0,1,4.88,1.81,12.21,12.21,0,0,1,3.78,3.55,14.89,14.89,0,0,1,2.74,10.42l-5.8,48.27a14,14,0,0,1-1.76,5.44,15.57,15.57,0,0,1-3.38,4.14A12.45,12.45,0,0,1,452.7,891a11.15,11.15,0,0,1-5.15.49A11.64,11.64,0,0,1,442.65,889.78Zm2.19-2.51a4.86,4.86,0,0,0,3,1.59,4.33,4.33,0,0,0,4.88-3.74l7.58-63a3.69,3.69,0,0,0-1-3.11,3.8,3.8,0,0,0-2.9-1.68,4.43,4.43,0,0,0-3.33.93,4.07,4.07,0,0,0-1.55,2.81l-7.58,63A4.67,4.67,0,0,0,444.84,887.27Z" transform="translate(-102.46 -130.75)"/>
      <path d="M429.31,823.67c-.2.48-.38,1-.53,1.4a8,8,0,0,1-.64,1.37,11.33,11.33,0,0,1-1.33,2.49,31.25,31.25,0,0,1-6.37,7.9q-1.67,1.6-3.44,3.2l-3.55,3.17a4.78,4.78,0,0,1-.67.62,5.63,5.63,0,0,0-.65.51l-.59.53c-.2.18-.4.39-.62.63a10.67,10.67,0,0,1-.84,1,3.54,3.54,0,0,0-.56.42c-.2.18-.4.39-.62.63a25.17,25.17,0,0,0-5.15,6.73c-.64,1.28-1.21,2.53-1.72,3.76s-.95,2.45-1.34,3.63q-1.05,3.6-1.71,6.6c-.12,1-.23,1.9-.33,2.59s-.18,1.26-.22,1.71l-.16.63a.46.46,0,0,1,0,.35,6.28,6.28,0,0,0,1.38,4.34,6.55,6.55,0,0,0,3.76,2.56,6.13,6.13,0,0,0,4.67-.49,8.09,8.09,0,0,0,3.43-3.54l-.32-.09a4.17,4.17,0,0,1-2.68-1.94,4.68,4.68,0,0,1-.4-3.29,4.15,4.15,0,0,1,5.23-3.07l.43.11a4.3,4.3,0,0,1,2.19,2.05,3.76,3.76,0,0,1,.48,3l-.08.32A14,14,0,0,1,414,878a13,13,0,0,1-3.69,3.25,12.61,12.61,0,0,1-4.71,1.5,12.34,12.34,0,0,1-5-.28,8.76,8.76,0,0,0,3.36.19,11.91,11.91,0,0,1-3.62-.49l-1-.25a3,3,0,0,1-.82-.32,5,5,0,0,1-1.62-.76,11,11,0,0,1-4.65-5.3,12.36,12.36,0,0,1-1.19-7.24,36.78,36.78,0,0,1,1.14-7.89c.18-.71.38-1.4.59-2.06s.43-1.31.67-1.93l.71-1.86a14.56,14.56,0,0,1,.79-1.73,36.85,36.85,0,0,1,5.25-8.41q1.51-1.87,3-3.48c1-1.07,2-2.11,3-3.14l1.56-1.41c.54-.46,1.06-.94,1.56-1.41,1.1-1,2.12-1.88,3.07-2.62l0-.1a3.31,3.31,0,0,0,.65-.57c.27-.27.61-.66,1-1.15s.88-1,1.34-1.64.94-1.29,1.44-2.07a33.71,33.71,0,0,0,3.15-5.55,31.83,31.83,0,0,0,2.36-7.34L408,810.2a2.66,2.66,0,0,0-2.12.25,2.51,2.51,0,0,0-1.21,1.61l2-7.77L432.6,811Z" transform="translate(-102.46 -130.75)"/>
      <path d="M391.79,800.29a17,17,0,0,1,3.53,5.16,7.75,7.75,0,0,1,.4,1.1,5.52,5.52,0,0,1,.19,1,4.78,4.78,0,0,1,0,.83l0,.7-.32.82a5.09,5.09,0,0,1-2.8,2.92,5,5,0,0,1-3.94.11,5.25,5.25,0,0,1-3-6.84,4.83,4.83,0,0,1,3.57-3.09,7.17,7.17,0,0,0-4.16-3.87,7.3,7.3,0,0,0-5.78,0,6.88,6.88,0,0,0-3.79,4l-2.92,7.48-.14.06-3.89,9.93a13,13,0,0,0-.27,1.31c-.64,2.43,0,4.91,1.81,7.44a16.82,16.82,0,0,0,7.83,5.66l-.32.82a17.23,17.23,0,0,0-9.24-1.13,8.86,8.86,0,0,0-6.39,3.64c-.17.25-.53.86-1.07,1.83L360,842.9l-.7,1.79c-.25.65-.48,1.33-.68,2l-4,10.34a6.28,6.28,0,0,0,.22,5.17,8,8,0,0,0,4.34,3.7,8.28,8.28,0,0,0,5.07.33,5,5,0,0,1-.38-3.57l.16-.41a4.91,4.91,0,0,1,6.27-2.75,4.78,4.78,0,0,1,2.76,2.62,4.65,4.65,0,0,1,.09,3.69,4.23,4.23,0,0,1-2.11,2.37,6.19,6.19,0,0,1-1.52.58,18.91,18.91,0,0,1-5.49,1.05,14.5,14.5,0,0,1-5.83-1.1,15.49,15.49,0,0,1-5.23-3.23A11.61,11.61,0,0,1,351,863.3a24.47,24.47,0,0,1-1.44-2.51,14.73,14.73,0,0,1-1.39-5.5,15.25,15.25,0,0,1,1-5.87l4.12-10.56c.13-.34.29-.69.47-1.05s.38-.7.58-1,.41-.64.62-1a6.38,6.38,0,0,1,.73-1,14.65,14.65,0,0,1,9.07-5.07,15.87,15.87,0,0,1-3.16-7.62,8.94,8.94,0,0,1-.11-1.69c0-.55.06-1.12.14-1.72a12,12,0,0,1,.87-3.44l4.09-10.45a14,14,0,0,1,3.21-4.88,12.65,12.65,0,0,1,4.79-3.21,14.47,14.47,0,0,1,2.83-.9,18.14,18.14,0,0,1,2.84-.31,15.91,15.91,0,0,1,6.08,1.08A13.61,13.61,0,0,1,391.79,800.29Z" transform="translate(-102.46 -130.75)"/>
      <path d="M340.47,774.62l7.28,4.75a4.62,4.62,0,0,0-3.53,1.38l-38.6,59.14a4,4,0,0,0,.16,3.78l-10.32-6.74,14.6-33.42L284.68,829.9,275,823.59a4.52,4.52,0,0,0,3.07-.89l.06-.09a.47.47,0,0,0,.28-.22l38.72-59.32a.1.1,0,0,0,0-.15l.18-.28a4,4,0,0,0-.31-3.35l10.6,6.92a4.08,4.08,0,0,0-2.93.85c-.1,0-.21.12-.33.31a.44.44,0,0,1-.27.21l-31.33,48,2.42-2.49,19.06-19.74.6-.53,3.84-4.06,5.71,3.73-7.11,15.72-8.06,18.38,31.45-48.18a.31.31,0,0,0,0-.24l.12-.18A4,4,0,0,0,340.47,774.62Z" transform="translate(-102.46 -130.75)"/>
      <path d="M286.39,772.19l-20.47,40.73-.67,1.46a3.74,3.74,0,0,0,.16,2.17l-9.33-8a3.14,3.14,0,0,0,2.86-1.3L259,807l.77-1.23.29-.33L275.84,774l-32.77,20L243,794a5,5,0,0,0-1.08,2.27l-5.5-4.75a5.46,5.46,0,0,0,3-.45l40.08-24.4,19.69-22.82,6.66,5.75Z" transform="translate(-102.46 -130.75)"/>
      <path d="M260.7,703.18a15.77,15.77,0,0,1,2.77,5.52,13.25,13.25,0,0,1,.45,5.93,14.09,14.09,0,0,1-1.79,5.58,15.64,15.64,0,0,1-3.93,4.61l-36.5,28.5a15.55,15.55,0,0,1-5.43,2.7,14.91,14.91,0,0,1-5.84.38,15.5,15.5,0,0,1-5.65-1.87,16.5,16.5,0,0,1-7.2-9,14.67,14.67,0,0,1-.67-5.33l-2.95,2.3-1.83-2.34,11-8.6.82,1-1.74,1.36a9.59,9.59,0,0,0-2.45,2.75,17,17,0,0,0-1.12,3.39,17.53,17.53,0,0,0,.26,3.56,9.3,9.3,0,0,0,1.65,3.18,8.85,8.85,0,0,0,6.07,3.49,9,9,0,0,0,6.9-1.9l41.7-32.56a9.3,9.3,0,0,0,3.66-6.21A8,8,0,0,0,257.2,703a8.83,8.83,0,0,0-3.88-2.83,9.82,9.82,0,0,0-4.74-.35l-2-2.51a15.41,15.41,0,0,1,7.63,1A15,15,0,0,1,260.7,703.18Z" transform="translate(-102.46 -130.75)"/>
      <path d="M173.61,708.86a33.24,33.24,0,0,1-.12-3.47,15,15,0,0,1,.43-3.42,19,19,0,0,1,2.88-6.26,16.77,16.77,0,0,1,5.17-4.83l35.13-21.41a17.13,17.13,0,0,1,6.76-2.44,19.13,19.13,0,0,1,6.89.31,15.52,15.52,0,0,1,3.23,1.19,34.15,34.15,0,0,1,3,1.69,17.12,17.12,0,0,1,4.89,5.27,15.81,15.81,0,0,1,2.38,6.66,18.71,18.71,0,0,1-3.13,13.25,17.12,17.12,0,0,1-5.27,4.89L200.75,721.7a16.81,16.81,0,0,1-6.67,2.38,18.7,18.7,0,0,1-13.2-3.29,15.7,15.7,0,0,1-4.83-5.17A16.87,16.87,0,0,1,173.61,708.86Zm3.89-1.21a8.35,8.35,0,0,0,1,6.73,7.81,7.81,0,0,0,2.28,2.47,10.58,10.58,0,0,0,3.12,1.32,8.54,8.54,0,0,0,3.42.11,9.46,9.46,0,0,0,3.35-1.27l45.93-28a9.35,9.35,0,0,0,2.67-2.4,8.49,8.49,0,0,0,1.47-3.08,8.12,8.12,0,0,0,.16-3.33,6.82,6.82,0,0,0-1.06-3.21,8.33,8.33,0,0,0-5.52-4,9.15,9.15,0,0,0-6.76,1.15l-45.94,28A9.15,9.15,0,0,0,177.5,707.65Z" transform="translate(-102.46 -130.75)"/>
      <path d="M227.65,657.63,163,686.37a4.53,4.53,0,0,0-1.88,3.36l-5.4-12.16c.09,0,.15.07.16.11a.38.38,0,0,0,.17.1c.1,0,.15.07.17.11s.07.07.17.1a3,3,0,0,0,2.43.61l.1-.05a.44.44,0,0,0,.35,0l63.62-28.3-8.32-18.69-1-.64-.58-.22-.58-.22c-.1,0-.15-.07-.17-.11s-.07-.07-.17-.1-.19,0-.39-.07a4.12,4.12,0,0,1-1-.17,4.2,4.2,0,0,0-1-.17,4.53,4.53,0,0,0-2,.16l-.49-1.1,9.15-4.07,15,33.67A4.22,4.22,0,0,0,227.65,657.63Z" transform="translate(-102.46 -130.75)"/>
      <path d="M212.32,622.06,144.5,642.14a4.53,4.53,0,0,0-2.3,3.09l-3.78-12.76q.14.07.15.12s.06.08.16.13.14.09.15.13a.28.28,0,0,0,.15.12,3,3,0,0,0,2.34.92l.1,0a.46.46,0,0,0,.35,0l66.76-19.76-5.8-19.62-.92-.76-.54-.3-.55-.3c-.09,0-.14-.09-.15-.13s-.06-.07-.16-.12-.19,0-.37-.12a4,4,0,0,1-1-.29,4.19,4.19,0,0,0-.95-.3,4.59,4.59,0,0,0-2-.1l-.34-1.16,9.6-2.84,10.46,35.33A4.27,4.27,0,0,0,212.32,622.06Z" transform="translate(-102.46 -130.75)"/>
      <path d="M205.25,586.49a4.28,4.28,0,0,0-3.42-1.78l-69.67,11.5A4.51,4.51,0,0,0,129.5,599l-5.32-32.23,9.44-1.56.18,1.08a7.55,7.55,0,0,0-3.28,2.44.31.31,0,0,1-.19.14.35.35,0,0,0-.09.18s0,.1-.08.18a7.47,7.47,0,0,0-1.56,5.39l2.15,13,29.73-4.9-2-12.37a4,4,0,0,0-1.43-1.22c-.08-.06-.13-.11-.13-.14s0-.09-.14-.15l-.14-.2a11,11,0,0,0-4-1.12l-.2-1.2,18.89-3.11.2,1.19a10,10,0,0,0-3.19,2.31c-.12.17-.22.26-.29.27s-.09.15-.08.18a.33.33,0,0,1-.08.18l-.55.76a2.08,2.08,0,0,0-.41.85l2,12.37,31.36-5.17-2.15-13a10.23,10.23,0,0,0-1.22-2.7,6.79,6.79,0,0,0-1.88-1.92,1.88,1.88,0,0,0-.37-.22.68.68,0,0,1-.24-.12,7.47,7.47,0,0,0-3.78-1.28l-.18-1.08,9.44-1.56Z" transform="translate(-102.46 -130.75)"/>
      <path d="M199,536.54a15.87,15.87,0,0,1-.89,6.1,13.41,13.41,0,0,1-3,5.11,14.25,14.25,0,0,1-4.67,3.55,15.51,15.51,0,0,1-5.87,1.51l-46.24,2.4a15.59,15.59,0,0,1-6-.91,15,15,0,0,1-5-3,15.42,15.42,0,0,1-3.55-4.77,15.75,15.75,0,0,1-1.41-6A15.45,15.45,0,0,1,123,535a14.74,14.74,0,0,1,2.51-4.76l-3.73.19-.16-3,13.95-.72.07,1.32-2.2.11a9.71,9.71,0,0,0-3.59.85,17.43,17.43,0,0,0-2.86,2.13,16.47,16.47,0,0,0-1.82,3.07,9.1,9.1,0,0,0-.48,3.54,8.81,8.81,0,0,0,3,6.35,9,9,0,0,0,6.73,2.4l52.84-2.73a9.29,9.29,0,0,0,6.56-3,8,8,0,0,0,2.43-6.4,8.94,8.94,0,0,0-1.56-4.55,9.87,9.87,0,0,0-3.68-3l-.17-3.19a15.49,15.49,0,0,1,5.67,5.22A15,15,0,0,1,199,536.54Z" transform="translate(-102.46 -130.75)"/>
      <path d="M198.93,508.69a4.88,4.88,0,0,0-3-2.07L126.4,502l-.82,12.4a2.15,2.15,0,0,0,.55,1.58,2.24,2.24,0,0,0,1.61.76l-6.59-.43,2.42-36.77,6.59.44a2.21,2.21,0,0,0-1.69.55,2.09,2.09,0,0,0-.76,1.49L127,493.47l69.47,4.58a4.48,4.48,0,0,0,1.8-.54,6.93,6.93,0,0,0,.86-.44,1.93,1.93,0,0,0,.65-.68l-.23,1.86h.11Z" transform="translate(-102.46 -130.75)"/>
      <path d="M174.09,469.77l-3.87-.83L176,442.05l3.87.83Z" transform="translate(-102.46 -130.75)"/>
      <path d="M209,432.83,142.16,408a4.54,4.54,0,0,0-3.69,1.09L143,396.79a18.87,18.87,0,0,1,4.05-6.47,19.67,19.67,0,0,1,13.3-6.08,19,19,0,0,1,7.54,1.16,18.26,18.26,0,0,1,9.52,7.54,18.67,18.67,0,0,1,3.08,11.59l-.11.31a.45.45,0,0,1,0,.34c.09,0,.2-.23.33-.58a19.61,19.61,0,0,1,4.48-5.72,22.72,22.72,0,0,1,6.08-3.73,20.57,20.57,0,0,1,6.83-1.33,18.94,18.94,0,0,1,7.06,1.22,20,20,0,0,1,6.68,4.13,18.42,18.42,0,0,1,4.34,6.31,19.62,19.62,0,0,1,1.76,7.58,21.93,21.93,0,0,1-1.36,8.06l-5.56,14.95A4.26,4.26,0,0,0,209,432.83Zm-36.3-34.28a18.78,18.78,0,0,0-8.4-5.83,22,22,0,0,0-5.94-1.39,16.44,16.44,0,0,0-5.34.48,11,11,0,0,0-4.28,2.05,8.26,8.26,0,0,0-2.6,3.49l-.88,2.37,28.66,10.67,1.54-4.12Q175.81,402.42,172.67,398.55ZM212.89,416a13.06,13.06,0,0,0-1.7-5.21,20.19,20.19,0,0,0-1.61-2.3,16.64,16.64,0,0,0-2-2.1,18,18,0,0,0-5.43-3.08,16.38,16.38,0,0,0-10.45-.61,13.48,13.48,0,0,0-7.7,5.24l-2,5.46,29.28,10.9,1.12-3A11.08,11.08,0,0,0,212.89,416Z" transform="translate(-102.46 -130.75)"/>
      <path d="M169.41,342.74a32.34,32.34,0,0,1,2.92-1.88,15.19,15.19,0,0,1,3.15-1.39,19,19,0,0,1,6.86-.73,16.63,16.63,0,0,1,6.79,2l36.39,19.19a17.06,17.06,0,0,1,5.56,4.55,19.1,19.1,0,0,1,3.26,6.08,15.2,15.2,0,0,1,.65,3.38c.08,1.17.12,2.32.09,3.47a17,17,0,0,1-2,6.9,15.83,15.83,0,0,1-4.5,5.46,18.73,18.73,0,0,1-13,4.1,17.11,17.11,0,0,1-6.89-2l-36.39-19.2a16.67,16.67,0,0,1-5.47-4.5,18.64,18.64,0,0,1-3.94-13,15.66,15.66,0,0,1,2-6.79A16.81,16.81,0,0,1,169.41,342.74Zm3,2.72a8.32,8.32,0,0,0-5.26,4.31,7.79,7.79,0,0,0-1,3.23,10.58,10.58,0,0,0,.47,3.36,8.5,8.5,0,0,0,1.66,3,9.3,9.3,0,0,0,2.8,2.22l47.58,25.1a9.31,9.31,0,0,0,3.42,1.06,8.42,8.42,0,0,0,3.4-.32,8.06,8.06,0,0,0,2.94-1.56,6.82,6.82,0,0,0,2.22-2.56,8.35,8.35,0,0,0,.59-6.78,9.13,9.13,0,0,0-4.46-5.21l-47.58-25.1A9.1,9.1,0,0,0,172.45,345.46Z" transform="translate(-102.46 -130.75)"/>
      <path d="M195.19,302.45a33.48,33.48,0,0,1,3.14-1.49,15.14,15.14,0,0,1,3.3-1,19.19,19.19,0,0,1,6.9.15A16.73,16.73,0,0,1,215,303l33.6,23.74a17,17,0,0,1,4.93,5.23,19.24,19.24,0,0,1,2.45,6.44,15.76,15.76,0,0,1,.2,3.44,33,33,0,0,1-.36,3.46,16.94,16.94,0,0,1-2.89,6.57,15.71,15.71,0,0,1-5.17,4.84,18.65,18.65,0,0,1-13.4,2.38,17,17,0,0,1-6.57-2.89l-33.61-23.74a16.82,16.82,0,0,1-4.83-5.17,18.61,18.61,0,0,1-2.23-13.42,15.69,15.69,0,0,1,2.83-6.49A16.93,16.93,0,0,1,195.19,302.45Zm2.66,3.09a8.32,8.32,0,0,0-5.77,3.6,7.79,7.79,0,0,0-1.37,3.07,10.7,10.7,0,0,0,0,3.39,8.55,8.55,0,0,0,1.26,3.18,9.53,9.53,0,0,0,2.5,2.57l43.93,31a9.45,9.45,0,0,0,3.26,1.5,8.55,8.55,0,0,0,3.41.12,7.89,7.89,0,0,0,3.11-1.17,6.83,6.83,0,0,0,2.54-2.25,8.34,8.34,0,0,0,1.46-6.64,9.19,9.19,0,0,0-3.75-5.75l-43.94-31A9.15,9.15,0,0,0,197.85,305.54Z" transform="translate(-102.46 -130.75)"/>
      <path d="M273.38,325.69l-9.07,9.74a4.26,4.26,0,0,0-.68-3.79l-51.82-48.3a4.51,4.51,0,0,0-3.83-.41l9.07-9.74c0,.1,0,.17,0,.19a.43.43,0,0,0,0,.2.43.43,0,0,1,0,.2s0,.09,0,.19a3.05,3.05,0,0,0,.4,2.48l.08.07a.46.46,0,0,0,.17.31L243,300.53l.23.07-3.82-9.13-9.69-23.32-1-2.61-.16-.3a2.93,2.93,0,0,0-3.9-.18l7.27-7.8a3.14,3.14,0,0,0-.68,2.82l.26.69,2.47,5.91,10.62,25.39,40.14,15,.71.21a6,6,0,0,0,5.73-1l.16.15-11.93,12.79a3.62,3.62,0,0,0,1-2.68,3.47,3.47,0,0,0-1.18-2.45l-.24-.22-12.3-4.55L249,302.81l2.22,5.37,18.34,17.1A4.26,4.26,0,0,0,273.38,325.69Z" transform="translate(-102.46 -130.75)"/>
    </g>
    <path class="cls-1" d="M493.92,806.17A284,284,0,1,1,694.7,723,282.11,282.11,0,0,1,493.92,806.17Zm0-562.92c-153.82,0-279,125.14-279,279s125.14,279,279,279,279-125.14,279-279S647.73,243.25,493.92,243.25Z" transform="translate(-102.46 -130.75)"/>
    <path d="M493.92,913.67a390.18,390.18,0,1,1,152.37-30.76A389.11,389.11,0,0,1,493.92,913.67Zm0-777.92c-213.1,0-386.46,173.37-386.46,386.46S280.82,908.67,493.92,908.67,880.38,735.3,880.38,522.21,707,135.75,493.92,135.75Z" transform="translate(-102.46 -130.75)"/>
  </g>
</svg>
